<svg width="24" height="24" viewBox="0 0 24 24" fill="none" xmlns="http://www.w3.org/2000/svg">
<path opacity="0.4" d="M16.19 2H7.82002C4.18002 2 2.01001 4.17 2.01001 7.81V16.18C2.01001 19.82 4.18002 21.99 7.82002 21.99H16.19C19.83 21.99 22 19.82 22 16.18V7.81C22 4.17 19.83 2 16.19 2Z" fill="#7272FD"/>
<path d="M9.16985 14.09C9.35985 14.09 9.54985 14.02 9.69985 13.87L14.0799 9.49V11.92C14.0799 12.33 14.4199 12.67 14.8299 12.67C15.2399 12.67 15.5799 12.33 15.5799 11.92V7.68C15.5799 7.58 15.5599 7.49 15.5199 7.39C15.4399 7.21 15.2998 7.06 15.1098 6.98C15.0198 6.94 14.9199 6.92 14.8199 6.92H10.5799C10.1699 6.92 9.82985 7.26 9.82985 7.67C9.82985 8.08 10.1699 8.42 10.5799 8.42H13.0098L8.62985 12.8C8.33985 13.09 8.33985 13.57 8.62985 13.86C8.78985 14.02 8.97985 14.09 9.16985 14.09Z" fill="#7272FD"/>
<path d="M18.7099 16.28C18.5799 15.89 18.1599 15.68 17.7599 15.81C14.0399 17.05 9.94993 17.05 6.22993 15.81C5.83993 15.68 5.40994 15.89 5.27994 16.28C5.14994 16.67 5.35994 17.1 5.74994 17.23C7.75994 17.9 9.86994 18.24 11.9899 18.24C14.1099 18.24 16.2199 17.9 18.2299 17.23C18.6299 17.09 18.8399 16.67 18.7099 16.28Z" fill="#7272FD"/>
</svg>
