<?xml version="1.0" encoding="utf-8"?>
<!-- Generator: Adobe Illustrator 22.0.0, SVG Export Plug-In . SVG Version: 6.00 Build 0)  -->
<svg version="1.1" id="Layer_1" xmlns="http://www.w3.org/2000/svg" xmlns:xlink="http://www.w3.org/1999/xlink" x="0px" y="0px"
	 viewBox="0 0 150 30" style="enable-background:new 0 0 150 30;" xml:space="preserve">
<style type="text/css">
	.st0{fill:#FFFFFF;}
	.st1{fill:none;stroke:#00C4F4;stroke-width:4;stroke-linecap:round;stroke-linejoin:round;}
</style>
<g>
	<path class="st0" d="M33.8,13.5h-1.5c0-0.2-0.1-0.4-0.1-0.6c0-0.2,0-0.4,0-0.6c0-0.4,0-0.8,0.1-1.2h4.5v11.4
		c-0.5,0.1-1,0.1-1.5,0.1c-0.5,0-1,0-1.5-0.1V13.5z M33.3,9.2c-0.1-0.5-0.1-1-0.1-1.5c0-0.5,0-1,0.1-1.5c0.2,0,0.5-0.1,0.8-0.1
		s0.5,0,0.8,0c0.2,0,0.5,0,0.8,0s0.6,0.1,0.8,0.1c0,0.2,0.1,0.5,0.1,0.7c0,0.2,0,0.5,0,0.7c0,0.2,0,0.5,0,0.7c0,0.2,0,0.5-0.1,0.7
		c-0.2,0-0.5,0.1-0.8,0.1c-0.3,0-0.6,0-0.8,0c-0.2,0-0.5,0-0.8,0C33.8,9.3,33.6,9.3,33.3,9.2z"/>
	<path class="st0" d="M40.2,13.5h-1.4l-0.1-0.4l4.1-5.3h0.5v3.3H46c0,0.2,0.1,0.4,0.1,0.6c0,0.2,0,0.4,0,0.5c0,0.2,0,0.4,0,0.6
		c0,0.2,0,0.4-0.1,0.6h-2.7V18c0,0.5,0,0.8,0.1,1.1c0.1,0.3,0.2,0.5,0.3,0.7c0.1,0.2,0.3,0.3,0.5,0.3c0.2,0.1,0.4,0.1,0.7,0.1
		c0.2,0,0.4,0,0.6-0.1c0.2,0,0.4-0.1,0.6-0.1c0.1,0.3,0.2,0.6,0.2,0.9c0,0.3,0.1,0.6,0.1,0.8c0,0.2,0,0.3,0,0.4c0,0.1,0,0.2,0,0.3
		c-0.7,0.2-1.4,0.2-2.1,0.2c-1.3,0-2.4-0.3-3.1-0.9c-0.7-0.6-1.1-1.6-1.1-3V13.5z"/>
	<path class="st0" d="M47,6.7c0.2,0,0.5-0.1,0.9-0.1c0.3,0,0.6,0,0.9,0c0.6,0,1.1,0,1.8,0.1L54,19.2l3.5-12.5c0.3,0,0.6-0.1,0.8-0.1
		c0.3,0,0.5,0,0.8,0c0.3,0,0.5,0,0.8,0c0.3,0,0.6,0,0.8,0.1l-5.1,15.8c-0.3,0-0.6,0.1-0.9,0.1s-0.6,0-0.9,0c-0.3,0-0.6,0-0.9,0
		c-0.3,0-0.6-0.1-0.9-0.1L47,6.7z"/>
	<path class="st0" d="M66.1,22.8c-0.9,0-1.7-0.2-2.4-0.5c-0.7-0.3-1.2-0.7-1.7-1.3c-0.4-0.5-0.8-1.2-1-1.9c-0.2-0.7-0.3-1.5-0.3-2.3
		c0-0.8,0.1-1.6,0.3-2.4c0.2-0.7,0.6-1.4,1-1.9c0.4-0.5,1-1,1.7-1.3c0.7-0.3,1.5-0.5,2.4-0.5c0.9,0,1.7,0.2,2.4,0.5
		c0.7,0.3,1.3,0.7,1.7,1.3c0.5,0.5,0.8,1.2,1,1.9c0.2,0.7,0.3,1.5,0.3,2.4c0,0.8-0.1,1.6-0.3,2.3c-0.2,0.7-0.6,1.3-1,1.9
		c-0.5,0.5-1,1-1.7,1.3S67.1,22.8,66.1,22.8z M66.1,20.4c0.8,0,1.4-0.3,1.8-0.9c0.4-0.6,0.5-1.5,0.5-2.6s-0.2-2-0.5-2.6
		c-0.4-0.6-0.9-0.9-1.8-0.9c-0.8,0-1.4,0.3-1.7,0.9c-0.4,0.6-0.5,1.5-0.5,2.6s0.2,2,0.5,2.6C64.8,20.1,65.3,20.4,66.1,20.4z"/>
	<path class="st0" d="M74.1,11.1c0.2,0,0.4-0.1,0.6-0.1c0.2,0,0.4,0,0.6,0c0.2,0,0.4,0,0.6,0s0.4,0.1,0.6,0.1c0,0.1,0.1,0.2,0.1,0.3
		c0,0.1,0.1,0.3,0.1,0.4c0,0.2,0.1,0.3,0.1,0.5c0,0.2,0,0.3,0.1,0.4c0.3-0.5,0.7-0.9,1.2-1.2s1.1-0.5,1.8-0.5c0.1,0,0.3,0,0.5,0
		c0.2,0,0.3,0,0.4,0.1c0,0.1,0.1,0.3,0.1,0.5c0,0.2,0,0.4,0,0.6c0,0.2,0,0.5,0,0.8s-0.1,0.6-0.1,0.8c-0.2,0-0.3,0-0.5,0
		c-0.2,0-0.3,0-0.4,0c-0.2,0-0.5,0-0.8,0.1c-0.3,0.1-0.6,0.2-0.9,0.4s-0.5,0.5-0.7,1c-0.2,0.4-0.3,1.1-0.3,1.8v5.4
		c-0.3,0-0.5,0.1-0.8,0.1s-0.5,0-0.8,0c-0.2,0-0.5,0-0.8,0c-0.3,0-0.5,0-0.8-0.1V11.1z"/>
	<path class="st0" d="M83.2,13.5h-1.4l-0.1-0.4l4.1-5.3h0.5v3.3H89c0,0.2,0.1,0.4,0.1,0.6c0,0.2,0,0.4,0,0.5c0,0.2,0,0.4,0,0.6
		c0,0.2,0,0.4-0.1,0.6h-2.7V18c0,0.5,0,0.8,0.1,1.1c0.1,0.3,0.2,0.5,0.3,0.7c0.1,0.2,0.3,0.3,0.5,0.3c0.2,0.1,0.4,0.1,0.7,0.1
		c0.2,0,0.4,0,0.6-0.1c0.2,0,0.4-0.1,0.6-0.1c0.1,0.3,0.2,0.6,0.2,0.9c0,0.3,0.1,0.6,0.1,0.8c0,0.2,0,0.3,0,0.4c0,0.1,0,0.2,0,0.3
		c-0.7,0.2-1.4,0.2-2.1,0.2c-1.3,0-2.4-0.3-3.1-0.9c-0.7-0.6-1.1-1.6-1.1-3V13.5z"/>
	<path class="st0" d="M93.8,17.8c0.1,0.9,0.4,1.5,0.9,1.9c0.6,0.4,1.3,0.6,2.2,0.6c0.5,0,1,0,1.5-0.1c0.5-0.1,1-0.2,1.5-0.4
		c0.2,0.3,0.3,0.6,0.4,1.1c0.1,0.4,0.2,0.9,0.2,1.3c-1.1,0.4-2.4,0.7-3.9,0.7c-1.1,0-2-0.1-2.7-0.4c-0.8-0.3-1.4-0.7-1.8-1.2
		c-0.5-0.5-0.8-1.1-1.1-1.9c-0.2-0.7-0.3-1.5-0.3-2.4c0-0.8,0.1-1.6,0.4-2.4c0.2-0.7,0.6-1.4,1-1.9c0.5-0.5,1-1,1.7-1.3
		c0.7-0.3,1.5-0.5,2.4-0.5c0.8,0,1.5,0.1,2.1,0.4c0.6,0.3,1.1,0.7,1.6,1.1c0.4,0.5,0.8,1.1,1,1.7c0.2,0.7,0.3,1.4,0.3,2.1
		c0,0.3,0,0.6,0,0.8c0,0.3,0,0.5-0.1,0.6H93.8z M98.3,15.6c0-0.7-0.2-1.3-0.6-1.7c-0.4-0.4-0.9-0.6-1.5-0.6c-0.7,0-1.3,0.2-1.7,0.6
		s-0.6,1-0.7,1.7H98.3z"/>
	<path class="st0" d="M104.8,16.6l-2.2-5.5c0.5-0.1,1-0.1,1.6-0.1c0.6,0,1.1,0,1.7,0.1l1.7,5.6l-2.3,5.8c-0.5,0.1-1,0.1-1.6,0.1
		c-0.5,0-1.1,0-1.6-0.1L104.8,16.6z M107.8,16.7l1.8-5.6c0.5-0.1,1.1-0.1,1.7-0.1c0.5,0,1.1,0,1.6,0.1l-2.2,5.5l2.6,5.9
		c-0.6,0.1-1.1,0.1-1.6,0.1c-0.5,0-1,0-1.6-0.1L107.8,16.7z"/>
</g>
<g>
	<path class="st1" d="M9,6.8h12.9c5.9,0,5.9,8.2,0,8.2h-7"/>
	<path class="st1" d="M14.9,15h7c5.9,0,5.9,8.2,0,8.2H9"/>
	<path class="st1" d="M13.7,26.7V3.3"/>
	<path class="st1" d="M20.7,6.8V3.3"/>
	<path class="st1" d="M20.7,26.7v-3.5"/>
</g>
</svg>
