<?xml version="1.0" encoding="utf-8"?>
<!-- Generator: Adobe Illustrator 22.0.0, SVG Export Plug-In . SVG Version: 6.00 Build 0)  -->
<svg version="1.1" id="Layer_1" xmlns="http://www.w3.org/2000/svg" xmlns:xlink="http://www.w3.org/1999/xlink" x="0px" y="0px"
	 viewBox="0 0 24 24" style="enable-background:new 0 0 24 24;" xml:space="preserve">
<style type="text/css">
	.st0{opacity:0.4;fill:#00C4F4;enable-background:new    ;}
	.st1{fill:#00C4F4;}
</style>
<path class="st0" d="M9,7.2v9.6C9,20,11,22,14.2,22h2.6c3.2,0,5.2-2,5.2-5.2V7.2C22,4,20,2,16.8,2h-2.6C11,2,9,4,9,7.2z"/>
<path class="st1" d="M12.4,8.1l3.3,3.4c0.3,0.3,0.3,0.8,0,1.1l-3.3,3.4c-0.3,0.3-0.8,0.3-1.1,0s-0.3-0.8,0-1.1l2.1-2.1H2.8
	C2.3,12.8,2,12.4,2,12s0.3-0.8,0.8-0.8h10.7l-2.1-2.1c-0.1-0.1-0.2-0.3-0.2-0.5c0-0.2,0.1-0.4,0.2-0.5C11.7,7.8,12.1,7.8,12.4,8.1z"
	/>
</svg>
