<svg width="20" height="20" viewBox="0 0 20 20" fill="none" xmlns="http://www.w3.org/2000/svg">
<rect width="20" height="20" rx="10" fill="#209AE6"/>
<path d="M9.3739 12.7571C11.2608 12.7927 13.1132 12.8273 15.0001 12.8975C14.9309 13.1775 14.8608 13.4218 14.8262 13.6671C14.7205 14.0173 14.6158 14.3329 14.5466 14.683C14.5111 14.8581 14.4409 14.8927 14.2671 14.8927H5.25034C5.56551 13.6671 5.87965 12.5127 6.1938 11.2871C5.70479 11.4622 5.28491 11.6373 4.7959 11.847C4.9362 11.3227 5.07548 10.8677 5.25034 10.3771C5.25034 10.3078 5.35506 10.2722 5.42521 10.2722C5.74037 10.1327 6.08908 10.0269 6.40323 9.88642C6.50795 9.85279 6.61368 9.74793 6.61368 9.64209L8.0797 4.18271C8.11528 3.973 8.18441 3.90277 8.42943 3.90277H11.6095C11.2252 5.33711 10.8755 6.77342 10.4912 8.27799C11.0504 8.03366 11.575 7.82296 12.1687 7.61325C12.0985 7.89319 11.9938 8.13752 11.9593 8.38284C11.8891 8.94372 11.575 9.25828 11.0158 9.39875C10.7718 9.46799 10.5258 9.57285 10.2818 9.67869C10.1951 9.73054 10.1231 9.80262 10.0723 9.8884C9.82733 10.8331 9.58232 11.7431 9.37288 12.6878V12.7581L9.3739 12.7571Z" fill="white"/>
</svg>
