<?xml version="1.0" encoding="utf-8"?>
<!-- Generator: Adobe Illustrator 22.0.0, SVG Export Plug-In . SVG Version: 6.00 Build 0)  -->
<svg version="1.1" id="Layer_1" xmlns="http://www.w3.org/2000/svg" xmlns:xlink="http://www.w3.org/1999/xlink" x="0px" y="0px"
	 viewBox="0 0 30 30" style="enable-background:new 0 0 30 30;" xml:space="preserve">
<style type="text/css">
	.st0{opacity:0.4;fill:#00C4F4;enable-background:new    ;}
	.st1{fill:#00C4F4;}
</style>
<path class="st0" d="M2.5,16.1v-2.2c0-1.3,1.1-2.4,2.4-2.4c2.3,0,3.2-1.6,2.1-3.6C6.3,6.8,6.7,5.4,7.8,4.7L10,3.5
	c1-0.6,2.3-0.2,2.9,0.8l0.1,0.2c1.1,2,3,2,4.1,0l0.1-0.2c0.6-1,1.9-1.3,2.8-0.8l2.2,1.2c1.1,0.7,1.5,2.1,0.9,3.2
	c-1.1,2-0.2,3.6,2.1,3.6c1.3,0,2.4,1.1,2.4,2.4v2.2c0,1.3-1.1,2.4-2.4,2.4c-2.3,0-3.2,1.6-2.1,3.6c0.6,1.1,0.3,2.6-0.9,3.2L20,26.5
	c-1,0.6-2.3,0.2-2.8-0.8l-0.1-0.2c-1.1-2-3-2-4.1,0l-0.1,0.2c-0.6,1-1.9,1.3-2.9,0.8l-2.2-1.2c-1.1-0.6-1.5-2.1-0.9-3.2
	c1.1-2,0.2-3.6-2.1-3.6C3.6,18.5,2.5,17.4,2.5,16.1z"/>
<path class="st1" d="M15,19.1c2.2,0,4.1-1.8,4.1-4.1s-1.8-4.1-4.1-4.1s-4.1,1.8-4.1,4.1S12.8,19.1,15,19.1z"/>
</svg>
